<svg width="144" height="48" viewBox="0 0 144 48" fill="none" xmlns="http://www.w3.org/2000/svg">
<rect width="144" height="48" rx="15" fill="#0E0E0E"/>
<path d="M53.27 30.0846C52.48 30.0846 51.75 29.9546 51.08 29.6946C50.41 29.4246 49.83 29.0496 49.34 28.5696C48.85 28.0896 48.465 27.5246 48.185 26.8746C47.915 26.2246 47.78 25.5146 47.78 24.7446C47.78 23.9746 47.915 23.2646 48.185 22.6146C48.465 21.9646 48.85 21.3996 49.34 20.9196C49.84 20.4396 50.425 20.0696 51.095 19.8096C51.765 19.5396 52.495 19.4046 53.285 19.4046C54.045 19.4046 54.76 19.5346 55.43 19.7946C56.1 20.0446 56.665 20.4246 57.125 20.9346L56.42 21.6396C55.99 21.1996 55.515 20.8846 54.995 20.6946C54.475 20.4946 53.915 20.3946 53.315 20.3946C52.685 20.3946 52.1 20.5046 51.56 20.7246C51.02 20.9346 50.55 21.2396 50.15 21.6396C49.75 22.0296 49.435 22.4896 49.205 23.0196C48.985 23.5396 48.875 24.1146 48.875 24.7446C48.875 25.3746 48.985 25.9546 49.205 26.4846C49.435 27.0046 49.75 27.4646 50.15 27.8646C50.55 28.2546 51.02 28.5596 51.56 28.7796C52.1 28.9896 52.685 29.0946 53.315 29.0946C53.915 29.0946 54.475 28.9946 54.995 28.7946C55.515 28.5946 55.99 28.2746 56.42 27.8346L57.125 28.5396C56.665 29.0496 56.1 29.4346 55.43 29.6946C54.76 29.9546 54.04 30.0846 53.27 30.0846ZM62.357 30.0846C61.577 30.0846 60.827 29.9596 60.107 29.7096C59.397 29.4496 58.847 29.1196 58.457 28.7196L58.892 27.8646C59.262 28.2246 59.757 28.5296 60.377 28.7796C61.007 29.0196 61.667 29.1396 62.357 29.1396C63.017 29.1396 63.552 29.0596 63.962 28.8996C64.382 28.7296 64.687 28.5046 64.877 28.2246C65.077 27.9446 65.177 27.6346 65.177 27.2946C65.177 26.8846 65.057 26.5546 64.817 26.3046C64.587 26.0546 64.282 25.8596 63.902 25.7196C63.522 25.5696 63.102 25.4396 62.642 25.3296C62.182 25.2196 61.722 25.1046 61.262 24.9846C60.802 24.8546 60.377 24.6846 59.987 24.4746C59.607 24.2646 59.297 23.9896 59.057 23.6496C58.827 23.2996 58.712 22.8446 58.712 22.2846C58.712 21.7646 58.847 21.2896 59.117 20.8596C59.397 20.4196 59.822 20.0696 60.392 19.8096C60.962 19.5396 61.692 19.4046 62.582 19.4046C63.172 19.4046 63.757 19.4896 64.337 19.6596C64.917 19.8196 65.417 20.0446 65.837 20.3346L65.462 21.2196C65.012 20.9196 64.532 20.6996 64.022 20.5596C63.522 20.4196 63.037 20.3496 62.567 20.3496C61.937 20.3496 61.417 20.4346 61.007 20.6046C60.597 20.7746 60.292 21.0046 60.092 21.2946C59.902 21.5746 59.807 21.8946 59.807 22.2546C59.807 22.6646 59.922 22.9946 60.152 23.2446C60.392 23.4946 60.702 23.6896 61.082 23.8296C61.472 23.9696 61.897 24.0946 62.357 24.2046C62.817 24.3146 63.272 24.4346 63.722 24.5646C64.182 24.6946 64.602 24.8646 64.982 25.0746C65.372 25.2746 65.682 25.5446 65.912 25.8846C66.152 26.2246 66.272 26.6696 66.272 27.2196C66.272 27.7296 66.132 28.2046 65.852 28.6446C65.572 29.0746 65.142 29.4246 64.562 29.6946C63.992 29.9546 63.257 30.0846 62.357 30.0846ZM71.5855 30.0846C70.8055 30.0846 70.0555 29.9596 69.3355 29.7096C68.6255 29.4496 68.0755 29.1196 67.6855 28.7196L68.1205 27.8646C68.4905 28.2246 68.9855 28.5296 69.6055 28.7796C70.2355 29.0196 70.8955 29.1396 71.5855 29.1396C72.2455 29.1396 72.7805 29.0596 73.1905 28.8996C73.6105 28.7296 73.9155 28.5046 74.1055 28.2246C74.3055 27.9446 74.4055 27.6346 74.4055 27.2946C74.4055 26.8846 74.2855 26.5546 74.0455 26.3046C73.8155 26.0546 73.5105 25.8596 73.1305 25.7196C72.7505 25.5696 72.3305 25.4396 71.8705 25.3296C71.4105 25.2196 70.9505 25.1046 70.4905 24.9846C70.0305 24.8546 69.6055 24.6846 69.2155 24.4746C68.8355 24.2646 68.5255 23.9896 68.2855 23.6496C68.0555 23.2996 67.9405 22.8446 67.9405 22.2846C67.9405 21.7646 68.0755 21.2896 68.3455 20.8596C68.6255 20.4196 69.0505 20.0696 69.6205 19.8096C70.1905 19.5396 70.9205 19.4046 71.8105 19.4046C72.4005 19.4046 72.9855 19.4896 73.5655 19.6596C74.1455 19.8196 74.6455 20.0446 75.0655 20.3346L74.6905 21.2196C74.2405 20.9196 73.7605 20.6996 73.2505 20.5596C72.7505 20.4196 72.2655 20.3496 71.7955 20.3496C71.1655 20.3496 70.6455 20.4346 70.2355 20.6046C69.8255 20.7746 69.5205 21.0046 69.3205 21.2946C69.1305 21.5746 69.0355 21.8946 69.0355 22.2546C69.0355 22.6646 69.1505 22.9946 69.3805 23.2446C69.6205 23.4946 69.9305 23.6896 70.3105 23.8296C70.7005 23.9696 71.1255 24.0946 71.5855 24.2046C72.0455 24.3146 72.5005 24.4346 72.9505 24.5646C73.4105 24.6946 73.8305 24.8646 74.2105 25.0746C74.6005 25.2746 74.9105 25.5446 75.1405 25.8846C75.3805 26.2246 75.5005 26.6696 75.5005 27.2196C75.5005 27.7296 75.3605 28.2046 75.0805 28.6446C74.8005 29.0746 74.3705 29.4246 73.7905 29.6946C73.2205 29.9546 72.4855 30.0846 71.5855 30.0846Z" fill="#CBAF87"/>
<path d="M19 13.9946H36L34.454 31.9639L27.482 33.9946L20.5481 31.9628L19 13.9946ZM32.8352 17.6717L22.1659 17.6694L22.3379 19.8537L30.5347 19.8559L30.329 22.1197H24.953L25.1479 24.2636H30.1526L29.8565 27.1998L27.5005 27.87L25.1087 27.1942L24.9552 25.4358H22.8431L23.0783 28.6489L27.5005 30.0666L31.8499 28.7923L32.8352 17.6717Z" fill="#CBAF87"/>
</svg>
