<svg width="20" height="20" viewBox="0 0 20 20" fill="none" xmlns="http://www.w3.org/2000/svg">
<path d="M0 3C0 1.34315 1.34315 0 3 0H17C18.6569 0 20 1.34315 20 3V17C20 18.6569 18.6569 20 17 20H3C1.34315 20 0 18.6569 0 17V3Z" fill="#CBAF87"/>
<path d="M4 3H16L14.9087 15.5785L9.98731 17L5.0928 15.5777L4 3ZM13.766 5.57392L6.23478 5.57235L6.3562 7.10132L12.1422 7.10289L11.9969 8.68753H8.20212L8.33968 10.1883H11.8724L11.6634 12.2436L10.0004 12.7128L8.31201 12.2397L8.20366 11.0088H6.71278L6.87877 13.258L10.0004 14.2504L13.0705 13.3584L13.766 5.57392Z" fill="#0E0E0E"/>
</svg>
