<svg width="20" height="20" viewBox="0 0 20 20" fill="none" xmlns="http://www.w3.org/2000/svg">
<path d="M0 3C0 1.34315 1.34315 0 3 0H17C18.6569 0 20 1.34315 20 3V17C20 18.6569 18.6569 20 17 20H3C1.34315 20 0 18.6569 0 17V3Z" fill="#CBAF87"/>
<path d="M14.0594 7.91229C14.4887 7.52889 14.7898 7.02683 14.9231 6.47215C15.0564 5.91746 15.0157 5.33612 14.8064 4.80457C14.5971 4.27303 14.2289 3.81617 13.7503 3.49407C13.2717 3.17198 12.7051 2.99974 12.125 3H7.875C7.29489 2.99974 6.72827 3.17198 6.24968 3.49407C5.77108 3.81617 5.40292 4.27303 5.19359 4.80457C4.98427 5.33612 4.9436 5.91746 5.07692 6.47215C5.21024 7.02683 5.51132 7.52889 5.94055 7.91229C5.64432 8.17665 5.40762 8.49894 5.24565 8.85847C5.08367 9.21801 5 9.60684 5 10C5 10.3932 5.08368 10.782 5.24566 11.1416C5.40764 11.5011 5.64435 11.8234 5.94058 12.0877C5.5868 12.4042 5.31901 12.8023 5.16148 13.2462C5.00395 13.69 4.96167 14.1654 5.03847 14.6294C5.11528 15.0933 5.30874 15.5311 5.60131 15.903C5.89388 16.2749 6.27631 16.5691 6.71392 16.7591C7.15153 16.9491 7.63048 17.0287 8.10735 16.9908C8.58422 16.9529 9.04391 16.7987 9.44476 16.5421C9.8456 16.2855 10.1749 15.9346 10.4028 15.5214C10.6308 15.1081 10.7501 14.6455 10.75 14.1754V12.4799C11.3671 12.8107 12.0862 12.9077 12.7713 12.7527C13.4563 12.5977 14.0597 12.2013 14.4674 11.6387C14.8751 11.076 15.0587 10.3861 14.9835 9.69939C14.9083 9.0127 14.5796 8.3769 14.0594 7.91229ZM13.5 5.82459C13.4996 6.18253 13.3548 6.52571 13.0972 6.77893C12.8397 7.03214 12.4905 7.17473 12.1262 7.17545L12.125 7.17541L12.1226 7.17548L10.75 7.17544V4.4737H12.125C12.4895 4.4741 12.839 4.61656 13.0968 4.86981C13.3546 5.12306 13.4996 5.46643 13.5 5.82459ZM6.5 5.82459C6.50041 5.46643 6.64541 5.12306 6.90318 4.86981C7.16096 4.61656 7.51045 4.4741 7.875 4.4737H9.25V7.17541H7.875L7.87381 7.17544C7.50948 7.17473 7.16029 7.03215 6.90277 6.77893C6.64526 6.52572 6.50042 6.18253 6.5 5.82459ZM6.5 10C6.50041 9.64205 6.64525 9.29886 6.90277 9.04565C7.16029 8.79244 7.50948 8.64985 7.87381 8.64914L7.875 8.64917L9.25 8.64913V11.3509L7.875 11.3509C7.51045 11.3505 7.16096 11.208 6.90318 10.9548C6.64541 10.7015 6.50041 10.3582 6.5 10ZM9.25 14.1754C9.25 14.4426 9.16937 14.7038 9.01828 14.926C8.8672 15.1481 8.65246 15.3213 8.40121 15.4235C8.14996 15.5258 7.8735 15.5525 7.60677 15.5004C7.34004 15.4483 7.09504 15.3196 6.90274 15.1307C6.71044 14.9418 6.57948 14.7011 6.52642 14.439C6.47337 14.177 6.50059 13.9054 6.60466 13.6585C6.70873 13.4117 6.88497 13.2007 7.11109 13.0523C7.33721 12.9038 7.60305 12.8246 7.875 12.8246L9.25 12.8246V14.1754ZM12.125 11.3509C11.7607 11.3507 11.4113 11.2085 11.1536 10.9554C10.896 10.7023 10.7511 10.3592 10.7507 10.0012C10.7504 9.64327 10.8947 9.29984 11.1519 9.04633C11.4091 8.79283 11.7583 8.64999 12.1226 8.64917H12.125L12.1262 8.64914C12.4906 8.64969 12.8399 8.79233 13.0973 9.04573C13.3547 9.29914 13.4992 9.64258 13.4991 10.0006C13.4989 10.3586 13.3541 10.7019 13.0965 10.9551C12.8388 11.2083 12.4894 11.3507 12.125 11.3509Z" fill="#0E0E0E"/>
</svg>
