<svg width="20" height="20" viewBox="0 0 20 20" fill="none" xmlns="http://www.w3.org/2000/svg">
<path d="M0 3C0 1.34315 1.34315 0 3 0H17C18.6569 0 20 1.34315 20 3V17C20 18.6569 18.6569 20 17 20H3C1.34315 20 0 18.6569 0 17V3Z" fill="#CBAF87"/>
<path d="M17.6975 9.28676L10.7114 2.3015C10.3088 1.8995 9.65675 1.8995 9.25274 2.3015L7.80539 3.75148L9.64541 5.59146C10.0754 5.44813 10.5648 5.5448 10.9048 5.88546C11.2488 6.22879 11.3434 6.72412 11.1968 7.15211L12.9688 8.92543C13.3988 8.77676 13.8935 8.87343 14.2355 9.21542C14.7161 9.69542 14.7161 10.4714 14.2355 10.9514C13.7561 11.4307 12.9814 11.4307 12.5021 10.9514C12.1428 10.5907 12.0528 10.0601 12.2328 9.62075L10.5734 7.9701V12.3201C10.6908 12.3774 10.8014 12.4554 10.8988 12.5521C11.3741 13.0327 11.3741 13.8074 10.8988 14.2854C10.4194 14.766 9.63941 14.766 9.15941 14.2854C8.68007 13.806 8.68007 13.0327 9.15941 12.5534C9.28074 12.4334 9.41741 12.3427 9.56275 12.2827V7.89011C9.41808 7.82944 9.28008 7.74211 9.16274 7.62277C8.7994 7.25945 8.71207 6.72812 8.89874 6.28346L7.09072 4.46681L2.3 9.25409C1.9 9.65742 1.9 10.3101 2.3 10.7134L9.28674 17.698C9.68941 18.1007 10.3414 18.1007 10.7441 17.698L17.6975 10.7447C18.1008 10.3427 18.1008 9.69009 17.6975 9.28676Z" fill="#0E0E0E"/>
</svg>
