<svg width="20" height="20" viewBox="0 0 20 20" fill="none" xmlns="http://www.w3.org/2000/svg">
<path d="M0 3C0 1.34315 1.34315 0 3 0H17C18.6569 0 20 1.34315 20 3V17C20 18.6569 18.6569 20 17 20H3C1.34315 20 0 18.6569 0 17V3Z" fill="#CBAF87"/>
<path d="M4 3L5.10499 15.4193L10.0625 16.8182L15.0541 15.4193L16.16 3H4ZM13.7589 7.05103H7.93818L8.06761 8.61387H13.629L13.1974 13.3125L10.0975 14.1669V14.1761H10.063L6.93682 13.3125L6.74659 10.9114H8.25784L8.37023 12.1205L10.063 12.5783L11.7635 12.1205L11.9542 10.1514H6.66875L6.2625 5.53978H13.8975L13.7589 7.05103Z" fill="#0E0E0E"/>
</svg>
