<svg width="20" height="20" viewBox="0 0 20 20" fill="none" xmlns="http://www.w3.org/2000/svg">
<path d="M1 3.69951C1 2.20834 2.20883 0.999512 3.7 0.999512H16.3C17.7912 0.999512 19 2.20834 19 3.69951V16.2995C19 17.7907 17.7912 18.9995 16.3 18.9995H3.7C2.20883 18.9995 1 17.7907 1 16.2995V3.69951Z" fill="#0E0E0E"/>
<path d="M8.88816 8.51237L9.63916 10.8643H7.18801L7.9248 8.51237C8.0949 7.94564 8.2365 7.27976 8.3781 6.7272H8.40644C8.54816 7.2798 8.70393 7.93147 8.88816 8.51237ZM20 3.33335V16.6667C20 18.5 18.5 20 16.6666 20H3.33334C1.5 20 0 18.5 0 16.6667V3.33335C0 1.5 1.5 0 3.33334 0H16.6667C18.5 0 20 1.5 20 3.33335ZM12.6711 14.8879L9.56816 5.33886H7.3439L4.28367 14.8879H6.083L6.9048 12.1818H9.93669L10.801 14.8879H12.6711ZM15.6172 7.98814H13.8603V14.8879H15.6172V7.98814ZM15.7163 6.06137C15.7021 5.52297 15.3338 5.11217 14.7387 5.11217C14.1578 5.11217 13.7612 5.52297 13.7612 6.06137C13.7612 6.58564 14.1436 6.99644 14.7245 6.99644C15.3338 6.9964 15.7163 6.5856 15.7163 6.06137Z" fill="#CBAF87"/>
</svg>
