<svg width="20" height="20" viewBox="0 0 20 20" fill="none" xmlns="http://www.w3.org/2000/svg">
<path d="M1 3.69951C1 2.20834 2.20883 0.999512 3.7 0.999512H16.3C17.7912 0.999512 19 2.20834 19 3.69951V16.2995C19 17.7907 17.7912 18.9995 16.3 18.9995H3.7C2.20883 18.9995 1 17.7907 1 16.2995V3.69951Z" fill="#0E0E0E"/>
<path d="M13.2017 10.4746C13.2302 10.6162 13.2441 10.7863 13.2441 10.9281V11.9622C13.2441 12.1465 13.2302 12.3164 13.1875 12.4723C13.0176 13.2233 12.3942 13.7049 11.6858 13.7049C10.5808 13.7049 9.9573 12.784 9.9573 11.5231C9.9573 10.2337 10.5808 9.24203 11.6999 9.24203C12.4933 9.24203 13.0459 9.7946 13.2017 10.4746ZM20 3.33335V16.6667C20 18.5 18.5 20 16.6667 20H3.33335C1.5 20 0 18.5 0 16.6667V3.33335C0 1.5 1.5 0 3.33335 0H16.6667C18.5 0 20 1.5 20 3.33335ZM6.69906 5.40258H4.95648V14.9517H6.69906V5.40258ZM15.0436 14.9517C15.0151 14.4841 14.9868 13.7191 14.9868 13.0108V4.89249H13.2441V8.80282H13.2158C12.9043 8.2928 12.2241 7.89609 11.2749 7.89609C9.61726 7.89609 8.17213 9.27037 8.18626 11.5798C8.18626 13.7049 9.48971 15.1074 11.1331 15.1074C12.1389 15.1074 12.9749 14.6258 13.3859 13.8607H13.4142L13.485 14.9517H15.0436Z" fill="#CBAF87"/>
</svg>
