<svg width="20" height="20" viewBox="0 0 20 20" fill="none" xmlns="http://www.w3.org/2000/svg">
<path d="M0 3C0 1.34315 1.34315 0 3 0H17C18.6569 0 20 1.34315 20 3V17C20 18.6569 18.6569 20 17 20H3C1.34315 20 0 18.6569 0 17V3Z" fill="#CBAF87"/>
<path d="M16.9018 16.8621C17.5086 16.4572 17.9027 15.8023 17.9762 15.0765C18.2353 13.0579 16.3188 12.4979 15.04 12.1242L15.0283 12.1208C13.6242 11.7161 13.2945 11.5144 13.3475 11.0981C13.3625 10.8331 13.5002 10.5903 13.7198 10.4413C14.4439 9.94478 16.0045 10.2034 16.4932 10.3327C16.7504 10.3942 17.0212 10.3205 17.2118 10.1371C17.642 9.72302 17.4626 8.99841 16.8889 8.83285C16.6264 8.76561 14.29 8.18508 12.8536 9.1535C12.2631 9.55341 11.8805 10.1946 11.8089 10.9042C11.5762 12.7385 13.394 13.2638 14.5978 13.6116C16.1648 14.0641 16.5087 14.3007 16.4337 14.8735C16.4203 15.1519 16.2766 15.4076 16.0459 15.5639C15.3205 16.0462 13.7858 15.7734 13.3061 15.6441C13.0391 15.5695 12.7526 15.643 12.5545 15.8369C12.1276 16.2548 12.3132 16.978 12.8885 17.1388C13.5078 17.3045 14.1455 17.3914 14.7865 17.3973C15.4964 17.3973 16.2786 17.2745 16.9018 16.8621Z" fill="#0E0E0E"/>
<path d="M9.20616 14.293V9.37977C9.20616 9.10261 9.05829 8.8465 8.81827 8.70793C8.30109 8.40933 7.65462 8.78258 7.65462 9.37977V14.293C7.65416 14.8464 7.35898 15.3576 6.87996 15.6347C5.84609 16.2328 4.55252 15.4873 4.55154 14.293C4.55154 14.0158 4.40368 13.7597 4.16366 13.6211C3.64648 13.3225 3 13.6958 3 14.293C3 15.4016 3.59144 16.426 4.55154 16.9803C6.62027 18.1747 9.20616 16.6817 9.20616 14.293Z" fill="#0E0E0E"/>
</svg>
