<svg width="144" height="48" viewBox="0 0 144 48" fill="none" xmlns="http://www.w3.org/2000/svg">
<rect width="144" height="48" rx="15" fill="#0E0E0E"/>
<path d="M17 17C17 15.3431 18.3431 14 20 14H34C35.6569 14 37 15.3431 37 17V31C37 32.6569 35.6569 34 34 34H20C18.3431 34 17 32.6569 17 31V17Z" fill="#CBAF87"/>
<path d="M33.9018 30.8621C34.5086 30.4572 34.9027 29.8023 34.9762 29.0765C35.2353 27.0579 33.3188 26.4979 32.04 26.1242L32.0283 26.1208C30.6242 25.7161 30.2945 25.5144 30.3475 25.0981C30.3625 24.8331 30.5002 24.5903 30.7198 24.4413C31.4439 23.9448 33.0045 24.2034 33.4932 24.3327C33.7504 24.3942 34.0212 24.3205 34.2118 24.1371C34.642 23.723 34.4626 22.9984 33.8889 22.8328C33.6264 22.7656 31.29 22.1851 29.8536 23.1535C29.2631 23.5534 28.8805 24.1946 28.8089 24.9042C28.5762 26.7385 30.394 27.2638 31.5978 27.6116C33.1648 28.0641 33.5087 28.3007 33.4337 28.8735C33.4203 29.1519 33.2766 29.4076 33.0459 29.5639C32.3205 30.0462 30.7858 29.7734 30.3061 29.6441C30.0391 29.5695 29.7526 29.643 29.5545 29.8369C29.1276 30.2548 29.3132 30.978 29.8885 31.1388C30.5078 31.3045 31.1455 31.3914 31.7865 31.3973C32.4964 31.3973 33.2786 31.2745 33.9018 30.8621Z" fill="#0E0E0E"/>
<path d="M26.2062 28.293V23.3798C26.2062 23.1026 26.0583 22.8465 25.8183 22.7079C25.3011 22.4093 24.6546 22.7826 24.6546 23.3798V28.293C24.6542 28.8464 24.359 29.3576 23.88 29.6347C22.8461 30.2328 21.5525 29.4873 21.5515 28.293C21.5515 28.0158 21.4037 27.7597 21.1637 27.6211C20.6465 27.3225 20 27.6958 20 28.293C20 29.4016 20.5914 30.426 21.5515 30.9803C23.6203 32.1747 26.2062 30.6817 26.2062 28.293Z" fill="#0E0E0E"/>
<path d="M33.9018 30.8621C34.5086 30.4572 34.9027 29.8023 34.9762 29.0765C35.2353 27.0579 33.3188 26.4979 32.04 26.1242L32.0283 26.1208C30.6242 25.7161 30.2945 25.5144 30.3475 25.0981C30.3625 24.8331 30.5002 24.5903 30.7198 24.4413C31.4439 23.9448 33.0045 24.2034 33.4932 24.3327C33.7504 24.3942 34.0212 24.3205 34.2118 24.1371C34.642 23.723 34.4626 22.9984 33.8889 22.8328C33.6264 22.7656 31.29 22.1851 29.8536 23.1535C29.2631 23.5534 28.8805 24.1946 28.8089 24.9042C28.5762 26.7385 30.394 27.2638 31.5978 27.6116C33.1648 28.0641 33.5087 28.3007 33.4337 28.8735C33.4203 29.1519 33.2766 29.4076 33.0459 29.5639C32.3205 30.0462 30.7858 29.7734 30.3061 29.6441C30.0391 29.5695 29.7526 29.643 29.5545 29.8369C29.1276 30.2548 29.3132 30.978 29.8885 31.1388C30.5078 31.3045 31.1455 31.3914 31.7865 31.3973C32.4964 31.3973 33.2786 31.2745 33.9018 30.8621Z" fill="#6C63FF" fill-opacity="0.1"/>
<path d="M26.2062 28.293V23.3798C26.2062 23.1026 26.0583 22.8465 25.8183 22.7079C25.3011 22.4093 24.6546 22.7826 24.6546 23.3798V28.293C24.6542 28.8464 24.359 29.3576 23.88 29.6347C22.8461 30.2328 21.5525 29.4873 21.5515 28.293C21.5515 28.0158 21.4037 27.7597 21.1637 27.6211C20.6465 27.3225 20 27.6958 20 28.293C20 29.4016 20.5914 30.426 21.5515 30.9803C23.6203 32.1747 26.2062 30.6817 26.2062 28.293Z" fill="#6C63FF" fill-opacity="0.1"/>
<path d="M49.835 29.0846C49.245 29.0846 48.69 28.9546 48.17 28.6946C47.66 28.4346 47.25 28.0646 46.94 27.5846L47.585 26.8346C47.875 27.2546 48.21 27.5746 48.59 27.7946C48.97 28.0146 49.39 28.1246 49.85 28.1246C51.15 28.1246 51.8 27.3546 51.8 25.8146V19.4546H47.96V18.4946H52.895V25.7696C52.895 26.8796 52.635 27.7096 52.115 28.2596C51.605 28.8096 50.845 29.0846 49.835 29.0846ZM60.9346 28.9946V27.2546L60.8896 26.9696V24.0596C60.8896 23.3896 60.6996 22.8746 60.3196 22.5146C59.9496 22.1546 59.3946 21.9746 58.6546 21.9746C58.1446 21.9746 57.6596 22.0596 57.1996 22.2296C56.7396 22.3996 56.3496 22.6246 56.0296 22.9046L55.5496 22.1096C55.9496 21.7696 56.4296 21.5096 56.9896 21.3296C57.5496 21.1396 58.1396 21.0446 58.7596 21.0446C59.7796 21.0446 60.5646 21.2996 61.1146 21.8096C61.6746 22.3096 61.9546 23.0746 61.9546 24.1046V28.9946H60.9346ZM58.2196 29.0696C57.6296 29.0696 57.1146 28.9746 56.6746 28.7846C56.2446 28.5846 55.9146 28.3146 55.6846 27.9746C55.4546 27.6246 55.3396 27.2246 55.3396 26.7746C55.3396 26.3646 55.4346 25.9946 55.6246 25.6646C55.8246 25.3246 56.1446 25.0546 56.5846 24.8546C57.0346 24.6446 57.6346 24.5396 58.3846 24.5396H61.0996V25.3346H58.4146C57.6546 25.3346 57.1246 25.4696 56.8246 25.7396C56.5346 26.0096 56.3896 26.3446 56.3896 26.7446C56.3896 27.1946 56.5646 27.5546 56.9146 27.8246C57.2646 28.0946 57.7546 28.2296 58.3846 28.2296C58.9846 28.2296 59.4996 28.0946 59.9296 27.8246C60.3696 27.5446 60.6896 27.1446 60.8896 26.6246L61.1296 27.3596C60.9296 27.8796 60.5796 28.2946 60.0796 28.6046C59.5896 28.9146 58.9696 29.0696 58.2196 29.0696ZM66.7258 28.9946L63.2308 21.1196H64.3408L67.5508 28.4246H67.0258L70.2808 21.1196H71.3308L67.8208 28.9946H66.7258ZM77.5313 28.9946V27.2546L77.4863 26.9696V24.0596C77.4863 23.3896 77.2963 22.8746 76.9163 22.5146C76.5463 22.1546 75.9913 21.9746 75.2513 21.9746C74.7413 21.9746 74.2563 22.0596 73.7963 22.2296C73.3363 22.3996 72.9463 22.6246 72.6263 22.9046L72.1463 22.1096C72.5463 21.7696 73.0263 21.5096 73.5863 21.3296C74.1463 21.1396 74.7363 21.0446 75.3563 21.0446C76.3763 21.0446 77.1613 21.2996 77.7113 21.8096C78.2713 22.3096 78.5513 23.0746 78.5513 24.1046V28.9946H77.5313ZM74.8163 29.0696C74.2263 29.0696 73.7113 28.9746 73.2713 28.7846C72.8413 28.5846 72.5113 28.3146 72.2813 27.9746C72.0513 27.6246 71.9363 27.2246 71.9363 26.7746C71.9363 26.3646 72.0313 25.9946 72.2213 25.6646C72.4213 25.3246 72.7413 25.0546 73.1813 24.8546C73.6313 24.6446 74.2313 24.5396 74.9813 24.5396H77.6963V25.3346H75.0113C74.2513 25.3346 73.7213 25.4696 73.4213 25.7396C73.1313 26.0096 72.9863 26.3446 72.9863 26.7446C72.9863 27.1946 73.1613 27.5546 73.5113 27.8246C73.8613 28.0946 74.3513 28.2296 74.9813 28.2296C75.5813 28.2296 76.0963 28.0946 76.5263 27.8246C76.9663 27.5446 77.2863 27.1446 77.4863 26.6246L77.7263 27.3596C77.5263 27.8796 77.1763 28.2946 76.6763 28.6046C76.1863 28.9146 75.5663 29.0696 74.8163 29.0696ZM84.564 29.0846C83.784 29.0846 83.034 28.9596 82.314 28.7096C81.604 28.4496 81.054 28.1196 80.664 27.7196L81.099 26.8646C81.469 27.2246 81.964 27.5296 82.584 27.7796C83.214 28.0196 83.874 28.1396 84.564 28.1396C85.224 28.1396 85.759 28.0596 86.169 27.8996C86.589 27.7296 86.894 27.5046 87.084 27.2246C87.284 26.9446 87.384 26.6346 87.384 26.2946C87.384 25.8846 87.264 25.5546 87.024 25.3046C86.794 25.0546 86.489 24.8596 86.109 24.7196C85.729 24.5696 85.309 24.4396 84.849 24.3296C84.389 24.2196 83.929 24.1046 83.469 23.9846C83.009 23.8546 82.584 23.6846 82.194 23.4746C81.814 23.2646 81.504 22.9896 81.264 22.6496C81.034 22.2996 80.919 21.8446 80.919 21.2846C80.919 20.7646 81.054 20.2896 81.324 19.8596C81.604 19.4196 82.029 19.0696 82.599 18.8096C83.169 18.5396 83.899 18.4046 84.789 18.4046C85.379 18.4046 85.964 18.4896 86.544 18.6596C87.124 18.8196 87.624 19.0446 88.044 19.3346L87.669 20.2196C87.219 19.9196 86.739 19.6996 86.229 19.5596C85.729 19.4196 85.244 19.3496 84.774 19.3496C84.144 19.3496 83.624 19.4346 83.214 19.6046C82.804 19.7746 82.499 20.0046 82.299 20.2946C82.109 20.5746 82.014 20.8946 82.014 21.2546C82.014 21.6646 82.129 21.9946 82.359 22.2446C82.599 22.4946 82.909 22.6896 83.289 22.8296C83.679 22.9696 84.104 23.0946 84.564 23.2046C85.024 23.3146 85.479 23.4346 85.929 23.5646C86.389 23.6946 86.809 23.8646 87.189 24.0746C87.579 24.2746 87.889 24.5446 88.119 24.8846C88.359 25.2246 88.479 25.6696 88.479 26.2196C88.479 26.7296 88.339 27.2046 88.059 27.6446C87.779 28.0746 87.349 28.4246 86.769 28.6946C86.199 28.9546 85.464 29.0846 84.564 29.0846ZM93.9425 29.0696C93.1625 29.0696 92.4625 28.8996 91.8425 28.5596C91.2325 28.2096 90.7525 27.7346 90.4025 27.1346C90.0525 26.5246 89.8775 25.8296 89.8775 25.0496C89.8775 24.2596 90.0525 23.5646 90.4025 22.9646C90.7525 22.3646 91.2325 21.8946 91.8425 21.5546C92.4625 21.2146 93.1625 21.0446 93.9425 21.0446C94.6125 21.0446 95.2175 21.1746 95.7575 21.4346C96.2975 21.6946 96.7225 22.0846 97.0325 22.6046L96.2375 23.1446C95.9675 22.7446 95.6325 22.4496 95.2325 22.2596C94.8325 22.0696 94.3975 21.9746 93.9275 21.9746C93.3675 21.9746 92.8625 22.1046 92.4125 22.3646C91.9625 22.6146 91.6075 22.9696 91.3475 23.4296C91.0875 23.8896 90.9575 24.4296 90.9575 25.0496C90.9575 25.6696 91.0875 26.2096 91.3475 26.6696C91.6075 27.1296 91.9625 27.4896 92.4125 27.7496C92.8625 27.9996 93.3675 28.1246 93.9275 28.1246C94.3975 28.1246 94.8325 28.0296 95.2325 27.8396C95.6325 27.6496 95.9675 27.3596 96.2375 26.9696L97.0325 27.5096C96.7225 28.0196 96.2975 28.4096 95.7575 28.6796C95.2175 28.9396 94.6125 29.0696 93.9425 29.0696ZM99.1246 28.9946V21.1196H100.145V23.2646L100.04 22.8896C100.26 22.2896 100.63 21.8346 101.15 21.5246C101.67 21.2046 102.315 21.0446 103.085 21.0446V22.0796C103.045 22.0796 103.005 22.0796 102.965 22.0796C102.925 22.0696 102.885 22.0646 102.845 22.0646C102.015 22.0646 101.365 22.3196 100.895 22.8296C100.425 23.3296 100.19 24.0446 100.19 24.9746V28.9946H99.1246ZM105.028 28.9946V21.1196H106.093V28.9946H105.028ZM105.568 19.3796C105.348 19.3796 105.163 19.3046 105.013 19.1546C104.863 19.0046 104.788 18.8246 104.788 18.6146C104.788 18.4046 104.863 18.2296 105.013 18.0896C105.163 17.9396 105.348 17.8646 105.568 17.8646C105.788 17.8646 105.973 17.9346 106.123 18.0746C106.273 18.2146 106.348 18.3896 106.348 18.5996C106.348 18.8196 106.273 19.0046 106.123 19.1546C105.983 19.3046 105.798 19.3796 105.568 19.3796ZM113.121 29.0696C112.441 29.0696 111.826 28.9146 111.276 28.6046C110.726 28.2846 110.286 27.8296 109.956 27.2396C109.636 26.6396 109.476 25.9096 109.476 25.0496C109.476 24.1896 109.636 23.4646 109.956 22.8746C110.276 22.2746 110.711 21.8196 111.261 21.5096C111.811 21.1996 112.431 21.0446 113.121 21.0446C113.871 21.0446 114.541 21.2146 115.131 21.5546C115.731 21.8846 116.201 22.3546 116.541 22.9646C116.881 23.5646 117.051 24.2596 117.051 25.0496C117.051 25.8496 116.881 26.5496 116.541 27.1496C116.201 27.7496 115.731 28.2196 115.131 28.5596C114.541 28.8996 113.871 29.0696 113.121 29.0696ZM109.056 31.9046V21.1196H110.076V23.4896L109.971 25.0646L110.121 26.6546V31.9046H109.056ZM113.046 28.1246C113.606 28.1246 114.106 27.9996 114.546 27.7496C114.986 27.4896 115.336 27.1296 115.596 26.6696C115.856 26.1996 115.986 25.6596 115.986 25.0496C115.986 24.4396 115.856 23.9046 115.596 23.4446C115.336 22.9846 114.986 22.6246 114.546 22.3646C114.106 22.1046 113.606 21.9746 113.046 21.9746C112.486 21.9746 111.981 22.1046 111.531 22.3646C111.091 22.6246 110.741 22.9846 110.481 23.4446C110.231 23.9046 110.106 24.4396 110.106 25.0496C110.106 25.6596 110.231 26.1996 110.481 26.6696C110.741 27.1296 111.091 27.4896 111.531 27.7496C111.981 27.9996 112.486 28.1246 113.046 28.1246ZM121.712 29.0696C120.972 29.0696 120.402 28.8696 120.002 28.4696C119.602 28.0696 119.402 27.5046 119.402 26.7746V19.3796H120.467V26.7146C120.467 27.1746 120.582 27.5296 120.812 27.7796C121.052 28.0296 121.392 28.1546 121.832 28.1546C122.302 28.1546 122.692 28.0196 123.002 27.7496L123.377 28.5146C123.167 28.7046 122.912 28.8446 122.612 28.9346C122.322 29.0246 122.022 29.0696 121.712 29.0696ZM117.992 22.0046V21.1196H122.867V22.0046H117.992Z" fill="#CBAF87"/>
</svg>
