<svg width="20" height="20" viewBox="0 0 20 20" fill="none" xmlns="http://www.w3.org/2000/svg">
<path d="M0 3C0 1.34315 1.34315 0 3 0H17C18.6569 0 20 1.34315 20 3V17C20 18.6569 18.6569 20 17 20H3C1.34315 20 0 18.6569 0 17V3Z" fill="#CBAF87"/>
<path d="M15.9582 12.7852C16.0948 12.6794 16.8834 12.1269 17 12L16.7143 13.7583C16.3291 14.1604 15.8776 14.4843 15.382 14.7139C14.9695 14.9012 14.5254 14.9984 14.0764 14.9995C13.6568 15.01 13.2471 14.8655 12.9207 14.5869C12.7485 14.4106 12.6162 14.1953 12.5337 13.9571C12.4512 13.719 12.4207 13.4642 12.4444 13.2118C12.4444 13.0355 12.4544 12.8592 12.4777 12.6829C12.5012 12.4819 12.5323 12.2819 12.571 12.0835L12.9273 10.3205L13.1705 9.08647C13.2238 8.84319 13.2571 8.59284 13.2671 8.3425C13.2755 8.27194 13.2692 8.20028 13.2484 8.13262C13.2277 8.06497 13.1931 8.00299 13.1472 7.95112C13.0252 7.87304 12.8828 7.83843 12.7408 7.8524C12.4244 7.87003 12.1213 7.99344 11.8749 8.20499C11.3995 8.58141 11.0693 9.12765 10.9456 9.7423L10.003 14.5164C9.98768 14.596 9.9468 14.6676 9.88732 14.719C9.82784 14.7704 9.75341 14.7985 9.67663 14.7985H8.3577C8.30858 14.798 8.26018 14.786 8.21597 14.7633C8.17175 14.7407 8.13281 14.708 8.10193 14.6676C8.07106 14.6271 8.04901 14.58 8.03737 14.5294C8.02574 14.4789 8.0248 14.4263 8.03462 14.3754L9.08045 9.15699C9.1404 8.87844 9.1737 8.58932 9.1737 8.30372C9.18058 8.23594 9.17342 8.16739 9.15271 8.10284C9.132 8.03829 9.09825 7.9793 9.0538 7.92997C8.93723 7.8524 8.80067 7.81714 8.66412 7.83124C8.35104 7.84887 8.05461 7.97228 7.8148 8.18384C7.30158 8.58219 6.94568 9.16744 6.81561 9.82692L5.87303 14.5164C5.85768 14.596 5.8168 14.6676 5.75732 14.719C5.69784 14.7704 5.62341 14.7985 5.54663 14.7985H4.15775C4.10836 14.7985 4.05958 14.7869 4.01495 14.7645C3.97032 14.7421 3.93096 14.7094 3.89972 14.6689C3.86847 14.6284 3.84613 14.5811 3.8343 14.5303C3.82248 14.4795 3.82147 14.4266 3.83135 14.3754L4.90715 8.9807V8.90665C4.93379 8.72683 4.95045 8.54701 4.95045 8.36366C4.95544 8.18999 4.8997 8.02049 4.79391 7.88766C4.75107 7.8319 4.69733 7.78663 4.63638 7.75498C4.57543 7.72333 4.50873 7.70604 4.44086 7.70431C4.26766 7.70784 4.09114 7.75015 3.9346 7.83124C3.76079 7.91674 3.59563 8.0207 3.44166 8.14153C3.28512 8.26141 3.28512 8.25788 3.18853 8.36366C3.11526 8.4377 2.98203 8.36718 3.00202 8.26141L3.28512 6.86866C3.29847 6.79632 3.32576 6.72767 3.36531 6.667C3.40485 6.60634 3.45579 6.55495 3.51494 6.51607L3.848 6.32567C4.25434 6.11059 4.70065 6.00129 5.15362 6.00481C5.68112 5.96872 6.20307 6.13661 6.62243 6.47729C6.84558 6.67826 7.00545 6.94271 7.07873 7.24241C7.40558 6.86503 7.80073 6.56102 8.24071 6.34842C8.68069 6.13582 9.15654 6.01897 9.63999 6.00481C9.9997 5.99071 10.3594 6.09649 10.6592 6.30804C10.8002 6.42455 10.9153 6.57239 10.9965 6.74115C11.0776 6.90991 11.1228 7.09547 11.1288 7.28472C11.5018 6.86866 11.9448 6.53018 12.4344 6.29041C12.847 6.10303 13.2911 6.00589 13.74 6.00481C14.163 5.98366 14.576 6.12822 14.9091 6.40677C15.0817 6.58295 15.2144 6.79813 15.2975 7.03623C15.3805 7.27434 15.4117 7.52923 15.3887 7.78188C15.3777 8.16136 15.3342 8.539 15.2588 8.91018L15.1755 9.33329L14.6626 11.9002C14.6093 12.1435 14.576 12.3938 14.566 12.6441C14.5578 12.7147 14.5643 12.7863 14.585 12.8539C14.6057 12.9215 14.6401 12.9835 14.6859 13.0355C14.8075 13.1148 14.95 13.1507 15.0923 13.1378C15.4087 13.1201 15.7143 12.9741 15.9582 12.7852Z" fill="#0E0E0E"/>
</svg>
