<svg width="20" height="20" viewBox="0 0 20 20" fill="none" xmlns="http://www.w3.org/2000/svg">
<path d="M0 3C0 1.34315 1.34315 0 3 0H17C18.6569 0 20 1.34315 20 3V17C20 18.6569 18.6569 20 17 20H3C1.34315 20 0 18.6569 0 17V3Z" fill="#CBAF87"/>
<g clip-path="url(#clip0_1043_36)">
<path fill-rule="evenodd" clip-rule="evenodd" d="M2 10C2 5.58172 5.58172 2 10 2C14.4182 2 18 5.58172 18 10C18 12.7595 16.6029 15.1926 14.4773 16.6307L7.23399 6.49005C7.09923 6.30139 6.85803 6.2214 6.63724 6.29215C6.41645 6.3629 6.26667 6.56819 6.26667 6.80004V14.8H7.33333V8.46429L13.5519 17.1702C12.4817 17.7014 11.2757 18 10 18C5.58172 18 2 14.4182 2 10ZM12.6667 12.6667V6.26667H13.7333V12.6667H12.6667Z" fill="#0E0E0E"/>
</g>
<defs>
<clipPath id="clip0_1043_36">
<rect width="16" height="16" fill="white" transform="translate(2 2)"/>
</clipPath>
</defs>
</svg>
