<svg width="20" height="20" viewBox="0 0 20 20" fill="none" xmlns="http://www.w3.org/2000/svg">
<path d="M1 3.69951C1 2.20834 2.20883 0.999512 3.7 0.999512H16.3C17.7912 0.999512 19 2.20834 19 3.69951V16.2995C19 17.7907 17.7912 18.9995 16.3 18.9995H3.7C2.20883 18.9995 1 17.7907 1 16.2995V3.69951Z" fill="#0E0E0E"/>
<path d="M16.6666 0H3.33334C1.5 0 0 1.5 0 3.33334V16.6667C0 18.5 1.5 20 3.33334 20H16.6667C18.5 20 20 18.5 20 16.6667V3.33334C20 1.5 18.5 0 16.6666 0ZM9.58233 10.177C8.88816 10.8712 7.79717 11.1972 6.5646 11.1972C6.23873 11.1972 5.94124 11.1829 5.71451 11.1404V14.739H3.98618V5.31752C4.60954 5.20422 5.4738 5.11913 6.64958 5.11913C7.9248 5.11913 8.85986 5.38833 9.4691 5.89842C10.0358 6.36601 10.4041 7.11685 10.4041 8.00942C10.4041 8.91618 10.1208 9.66699 9.58233 10.177ZM13.2086 14.8808C12.3727 14.8808 11.6219 14.6824 11.1118 14.399L11.4518 13.1381C11.8485 13.379 12.5994 13.6341 13.2228 13.6341C13.9878 13.6341 14.3279 13.3224 14.3279 12.8689C14.3279 12.4015 14.0446 12.1606 13.1945 11.8631C11.8484 11.3955 11.2819 10.6588 11.296 9.85121C11.296 8.63278 12.3019 7.68358 13.9028 7.68358C14.668 7.68358 15.3338 7.88198 15.7304 8.09439L15.3904 9.32699C15.0929 9.15705 14.5403 8.93031 13.9311 8.93031C13.3077 8.93031 12.9677 9.22785 12.9677 9.65282C12.9677 10.0921 13.2936 10.3047 14.172 10.6163C15.4188 11.0696 15.9997 11.7072 16.0138 12.7274C16.0138 13.9741 15.0363 14.8808 13.2086 14.8808ZM8.66143 8.08022C8.66143 9.19951 7.86797 9.83704 6.5646 9.83704C6.21044 9.83704 5.92707 9.82288 5.71451 9.76624V6.53595C5.89877 6.49349 6.23877 6.45098 6.72053 6.45098C7.9248 6.45098 8.66143 7.01771 8.66143 8.08022Z" fill="#CBAF87"/>
</svg>
