<svg width="20" height="20" viewBox="0 0 20 20" fill="none" xmlns="http://www.w3.org/2000/svg">
<path d="M0 3C0 1.34315 1.34315 0 3 0H17C18.6569 0 20 1.34315 20 3V17C20 18.6569 18.6569 20 17 20H3C1.34315 20 0 18.6569 0 17V3Z" fill="#CBAF87"/>
<path d="M13.3974 6.03668C13.1677 6.03668 12.9495 6.12399 12.7887 6.27896L8.19657 10.595L7.87867 10.2989L7.21736 9.6739C11.7414 5.42987 12.5597 5.38767 13.3966 6.03595L13.3974 6.03668ZM8.38607 10.75L12.9619 6.44194C13.2156 6.19165 13.6387 6.19529 13.8932 6.44558C14.143 6.69951 14.1183 7.0975 13.8367 7.31651L8.99092 11.3183L8.38607 10.75ZM8.72485 11.4252L7.58862 11.6559C7.56465 11.6595 7.53293 11.6478 7.52056 11.6217C7.50818 11.5984 7.51205 11.5722 7.53293 11.5525L8.19734 10.9275L8.72485 11.4252ZM5.83207 10.9785L7.04487 9.84124L7.95138 10.694L5.90865 11.1065C5.87229 11.1145 5.83671 11.1 5.8197 11.0687C5.80036 11.0389 5.8081 11.001 5.83207 10.9785ZM2.07379 16.8552C2.0297 16.8516 1.99644 16.8137 2.00031 16.7759C2.00417 16.7577 2.01268 16.7417 2.02506 16.7301H2.02892L3.0035 15.8133L4.26502 17L2.07379 16.8552ZM4.57441 15.635C4.4785 15.6845 4.42977 15.7871 4.45375 15.8853L4.66336 16.7235C4.69662 16.845 4.53883 16.9272 4.44602 16.837H4.44215L3.17753 15.6467L7.05725 12.0007L8.93446 11.6187L9.83246 12.4678C8.53922 13.5359 6.76952 14.6011 4.57441 15.635ZM10.0181 12.3121L9.1518 11.4972L13.9976 7.49549C14.0417 7.45766 14.0819 7.41619 14.1183 7.37399C13.9697 8.67783 12.0276 10.5194 10.0181 12.3121ZM13.7926 6.04395H13.7888C12.1003 4.44835 14.4857 1.99637 16.3226 3.43627L14.6635 5.00205C14.6148 5.04643 14.6148 5.12355 14.6635 5.16793L15.9483 6.37792C15.2274 6.71479 14.3611 6.57873 13.7926 6.04395ZM16.4472 6.04395C16.3629 6.12326 16.27 6.19529 16.1695 6.25568L14.925 5.08499L16.5036 3.59561C17.1882 4.29701 17.1603 5.37311 16.4472 6.04395ZM16.3458 4.5473C16.294 4.5815 16.2739 4.64116 16.2902 4.69864C16.3667 4.84198 16.3458 5.01296 16.2376 5.13447C16.185 5.19558 16.1973 5.27926 16.2615 5.32728C16.2863 5.34256 16.3141 5.3542 16.3458 5.3542C16.3899 5.3542 16.4317 5.33892 16.4549 5.30836C16.6367 5.10391 16.6722 4.81578 16.5477 4.57713C16.499 4.51674 16.4108 4.50146 16.3458 4.5473Z" fill="#0E0E0E"/>
</svg>
