<svg width="20" height="20" viewBox="0 0 20 20" fill="none" xmlns="http://www.w3.org/2000/svg">
<path d="M2.85714 0H17.1429C18.7143 0 20 1.28571 20 2.85714V17.1429C20 18.7143 18.7143 20 17.1429 20H2.85714C1.28571 20 0 18.7143 0 17.1429V2.85714C0 1.28571 1.28571 0 2.85714 0Z" fill="#CBAF87"/>
<path d="M18.214 10C18.214 8.85718 16.8569 7.92861 14.8569 7.28575C15.3569 5.21432 15.1426 3.57146 14.214 3.07146C13.9283 2.92861 13.714 2.85718 13.4283 2.85718C12.4997 2.85718 11.3569 3.50003 10.214 4.64289C8.99972 3.50003 7.85686 2.85718 6.92829 2.85718C6.64258 2.85718 6.35686 2.92861 6.14258 3.07146C5.21401 3.57146 4.99972 5.21432 5.49972 7.28575C3.49972 7.92861 2.14258 8.85718 2.14258 10C2.14258 11.1429 3.49972 12.0715 5.49972 12.7143C4.99972 14.7857 5.14258 16.4286 6.14258 17C6.35686 17.1429 6.64258 17.2143 6.92829 17.2143C7.85686 17.2143 8.99972 16.5715 10.1426 15.4286C11.2854 16.5715 12.4997 17.2143 13.3569 17.2143C13.6426 17.2143 13.9283 17.1429 14.1426 17C15.0711 16.4286 15.2854 14.7857 14.7854 12.7143C16.8569 12.0715 18.214 11.0715 18.214 10ZM13.4283 3.64289C13.5711 3.64289 13.714 3.64289 13.7854 3.71432C14.214 4.00003 14.4283 4.92861 14.2854 6.14289C14.214 6.42861 14.214 6.78575 14.1426 7.07146C13.4997 6.92861 12.7854 6.78575 12.0711 6.71432C11.6426 6.14289 11.214 5.57146 10.7854 5.14289C11.7854 4.14289 12.7854 3.64289 13.4283 3.64289ZM12.3569 11.2857C12.1426 11.7143 11.8569 12.0715 11.6426 12.5C11.1426 12.5 10.714 12.5715 10.214 12.5715C9.71401 12.5715 9.21401 12.5715 8.78544 12.5C8.49972 12.1429 8.28544 11.7143 8.07115 11.2857C7.85686 10.8572 7.64258 10.4286 7.42829 10C7.64258 9.57146 7.85686 9.14289 8.07115 8.71432C8.28544 8.28575 8.57115 7.85718 8.85686 7.50003C9.28544 7.50003 9.78544 7.42861 10.2854 7.42861C10.7854 7.42861 11.214 7.42861 11.714 7.50003C11.9997 7.85718 12.214 8.28575 12.4997 8.71432C12.714 9.14289 12.9283 9.57146 13.1426 10C12.8569 10.4286 12.5711 10.8572 12.3569 11.2857ZM13.4283 10.9286C13.5711 11.3572 13.714 11.7143 13.8569 12.1429C13.4283 12.2143 12.9997 12.2857 12.5711 12.3572C12.714 12.1429 12.8569 11.9286 12.9997 11.6429C13.1426 11.4286 13.2854 11.1429 13.4283 10.9286ZM10.1426 14.2857C9.85686 14 9.57115 13.6429 9.28544 13.2857C9.57115 13.2857 9.85686 13.2857 10.1426 13.2857C10.4283 13.2857 10.714 13.2857 10.9997 13.2857C10.714 13.6429 10.4283 14 10.1426 14.2857ZM7.71401 12.3572C7.28544 12.2857 6.85686 12.2143 6.42829 12.1429C6.57115 11.7143 6.71401 11.3572 6.85686 10.9286C6.99972 11.1429 7.14258 11.4286 7.28544 11.6429C7.42829 11.9286 7.57115 12.1429 7.71401 12.3572ZM6.92829 9.07146C6.78544 8.64289 6.64258 8.21432 6.49972 7.85718C6.92829 7.78575 7.35686 7.71432 7.78544 7.64289C7.64258 7.85718 7.49972 8.14289 7.35686 8.35718C7.14258 8.57146 6.99972 8.85718 6.92829 9.07146ZM10.1426 5.71432C10.4283 6.00003 10.714 6.35718 10.9997 6.71432C10.714 6.71432 10.4283 6.71432 10.1426 6.71432C9.85686 6.71432 9.57115 6.71432 9.28544 6.71432C9.57115 6.35718 9.85686 6.00003 10.1426 5.71432ZM12.9997 8.35718C12.8569 8.07146 12.714 7.85718 12.5711 7.64289C12.9997 7.71432 13.4283 7.78575 13.8569 7.85718C13.714 8.28575 13.5711 8.71432 13.4283 9.07146C13.2854 8.85718 13.1426 8.57146 12.9997 8.35718ZM6.07115 6.14289C5.92829 4.92861 6.07115 4.00003 6.57115 3.71432C6.64258 3.64289 6.78544 3.64289 6.92829 3.64289C7.57115 3.64289 8.57115 4.14289 9.64258 5.21432C9.21401 5.71432 8.78544 6.21432 8.35686 6.78575C7.64258 6.85718 6.92829 7.00003 6.28544 7.14289C6.14258 6.78575 6.07115 6.42861 6.07115 6.14289ZM4.78544 11.5715C3.64258 11.0715 2.92829 10.5 2.92829 9.92861C2.92829 9.42861 3.64258 8.78575 4.78544 8.28575C5.07115 8.14289 5.35686 8.07146 5.71401 8.00003C5.92829 8.64289 6.14258 9.28575 6.42829 9.92861C6.14258 10.5715 5.85686 11.2143 5.71401 11.8572C5.35686 11.8572 5.07115 11.7143 4.78544 11.5715ZM6.57115 16.2857C6.14258 16 5.92829 15.0715 6.07115 13.8572C6.14258 13.5715 6.14258 13.2143 6.28544 12.8572C6.92829 13 7.57115 13.1429 8.28544 13.2143C8.71401 13.7857 9.14258 14.3572 9.64258 14.8572C8.57115 15.8572 7.57115 16.4286 6.92829 16.4286C6.78544 16.3572 6.64258 16.3572 6.57115 16.2857ZM14.2854 13.8572C14.4283 15.0715 14.2854 16 13.7854 16.2857C13.714 16.3572 13.5711 16.3572 13.4283 16.3572C12.7854 16.3572 11.7854 15.8572 10.714 14.7857C11.1426 14.2857 11.6426 13.7857 12.0711 13.1429C12.7854 13.0715 13.4997 13 14.0712 12.7857C14.1426 13.2143 14.214 13.5715 14.2854 13.8572ZM15.5711 11.5715C15.2854 11.7143 14.9997 11.7857 14.6426 11.9286C14.4283 11.2857 14.214 10.6429 13.9283 10C14.214 9.35718 14.4997 8.64289 14.6426 8.07146C14.9997 8.14289 15.2854 8.28575 15.5711 8.35718C16.714 8.85718 17.4283 9.42861 17.4283 10C17.4283 10.5 16.714 11.1429 15.5711 11.5715Z" fill="#0E0E0E"/>
<path d="M10.2148 11.5C11.072 11.5 11.7148 10.8571 11.7148 10C11.7148 9.14286 11.072 8.5 10.2148 8.5C9.3577 8.5 8.71484 9.14286 8.71484 10C8.71484 10.8571 9.3577 11.5 10.2148 11.5Z" fill="#0E0E0E"/>
</svg>
