<svg width="144" height="48" viewBox="0 0 144 48" fill="none" xmlns="http://www.w3.org/2000/svg">
<rect width="144" height="48" rx="15" fill="#0E0E0E"/>
<path d="M48.824 29.9946V18.7946H53.016C53.9653 18.7946 54.7813 18.9493 55.464 19.2586C56.1467 19.5573 56.6693 19.9946 57.032 20.5706C57.4053 21.136 57.592 21.824 57.592 22.6346C57.592 23.424 57.4053 24.1066 57.032 24.6826C56.6693 25.248 56.1467 25.6853 55.464 25.9946C54.7813 26.2933 53.9653 26.4426 53.016 26.4426H49.48L50.008 25.8986V29.9946H48.824ZM56.472 29.9946L53.592 25.9306H54.872L57.768 29.9946H56.472ZM50.008 25.9946L49.48 25.4346H52.984C54.104 25.4346 54.952 25.1893 55.528 24.6986C56.1147 24.208 56.408 23.52 56.408 22.6346C56.408 21.7386 56.1147 21.0453 55.528 20.5546C54.952 20.064 54.104 19.8186 52.984 19.8186H49.48L50.008 19.2586V25.9946ZM63.7145 30.0746C62.8398 30.0746 62.0718 29.8933 61.4105 29.5306C60.7492 29.1573 60.2318 28.6506 59.8585 28.0106C59.4852 27.36 59.2985 26.6186 59.2985 25.7866C59.2985 24.9546 59.4745 24.2186 59.8265 23.5786C60.1892 22.9386 60.6798 22.4373 61.2985 22.0746C61.9278 21.7013 62.6318 21.5146 63.4105 21.5146C64.1998 21.5146 64.8985 21.696 65.5065 22.0586C66.1252 22.4106 66.6105 22.912 66.9625 23.5626C67.3145 24.2026 67.4905 24.944 67.4905 25.7866C67.4905 25.84 67.4852 25.8986 67.4745 25.9626C67.4745 26.016 67.4745 26.0746 67.4745 26.1386H60.1625V25.2906H66.8665L66.4185 25.6266C66.4185 25.0186 66.2852 24.48 66.0185 24.0106C65.7625 23.5306 65.4105 23.1573 64.9625 22.8906C64.5145 22.624 63.9972 22.4906 63.4105 22.4906C62.8345 22.4906 62.3172 22.624 61.8585 22.8906C61.3998 23.1573 61.0425 23.5306 60.7865 24.0106C60.5305 24.4906 60.4025 25.04 60.4025 25.6586V25.8346C60.4025 26.4746 60.5412 27.04 60.8185 27.5306C61.1065 28.0106 61.5012 28.3893 62.0025 28.6666C62.5145 28.9333 63.0958 29.0666 63.7465 29.0666C64.2585 29.0666 64.7332 28.976 65.1705 28.7946C65.6185 28.6133 66.0025 28.336 66.3225 27.9626L66.9625 28.6986C66.5892 29.1466 66.1198 29.488 65.5545 29.7226C64.9998 29.9573 64.3865 30.0746 63.7145 30.0746ZM74.8324 29.9946V28.1386L74.7844 27.8346V24.7306C74.7844 24.016 74.5817 23.4666 74.1764 23.0826C73.7817 22.6986 73.1897 22.5066 72.4004 22.5066C71.8564 22.5066 71.339 22.5973 70.8484 22.7786C70.3577 22.96 69.9417 23.2 69.6004 23.4986L69.0884 22.6506C69.515 22.288 70.027 22.0106 70.6244 21.8186C71.2217 21.616 71.851 21.5146 72.5124 21.5146C73.6004 21.5146 74.4377 21.7866 75.0244 22.3306C75.6217 22.864 75.9204 23.68 75.9204 24.7786V29.9946H74.8324ZM71.9364 30.0746C71.307 30.0746 70.7577 29.9733 70.2884 29.7706C69.8297 29.5573 69.4777 29.2693 69.2324 28.9066C68.987 28.5333 68.8644 28.1066 68.8644 27.6266C68.8644 27.1893 68.9657 26.7946 69.1684 26.4426C69.3817 26.08 69.723 25.792 70.1924 25.5786C70.6724 25.3546 71.3124 25.2426 72.1124 25.2426H75.0084V26.0906H72.1444C71.3337 26.0906 70.7684 26.2346 70.4484 26.5226C70.139 26.8106 69.9844 27.168 69.9844 27.5946C69.9844 28.0746 70.171 28.4586 70.5444 28.7466C70.9177 29.0346 71.4404 29.1786 72.1124 29.1786C72.7524 29.1786 73.3017 29.0346 73.7604 28.7466C74.2297 28.448 74.571 28.0213 74.7844 27.4666L75.0404 28.2506C74.827 28.8053 74.4537 29.248 73.9204 29.5786C73.3977 29.9093 72.7364 30.0746 71.9364 30.0746ZM82.4939 30.0746C81.6619 30.0746 80.9152 29.8933 80.2539 29.5306C79.6032 29.1573 79.0912 28.6506 78.7179 28.0106C78.3445 27.36 78.1579 26.6186 78.1579 25.7866C78.1579 24.944 78.3445 24.2026 78.7179 23.5626C79.0912 22.9226 79.6032 22.4213 80.2539 22.0586C80.9152 21.696 81.6619 21.5146 82.4939 21.5146C83.2085 21.5146 83.8539 21.6533 84.4299 21.9306C85.0059 22.208 85.4592 22.624 85.7899 23.1786L84.9419 23.7546C84.6539 23.328 84.2965 23.0133 83.8699 22.8106C83.4432 22.608 82.9792 22.5066 82.4779 22.5066C81.8805 22.5066 81.3419 22.6453 80.8619 22.9226C80.3819 23.1893 80.0032 23.568 79.7259 24.0586C79.4485 24.5493 79.3099 25.1253 79.3099 25.7866C79.3099 26.448 79.4485 27.024 79.7259 27.5146C80.0032 28.0053 80.3819 28.3893 80.8619 28.6666C81.3419 28.9333 81.8805 29.0666 82.4779 29.0666C82.9792 29.0666 83.4432 28.9653 83.8699 28.7626C84.2965 28.56 84.6539 28.2506 84.9419 27.8346L85.7899 28.4106C85.4592 28.9546 85.0059 29.3706 84.4299 29.6586C83.8539 29.936 83.2085 30.0746 82.4939 30.0746ZM90.7713 30.0746C89.9819 30.0746 89.3739 29.8613 88.9473 29.4346C88.5206 29.008 88.3073 28.4053 88.3073 27.6266V19.7386H89.4433V27.5626C89.4433 28.0533 89.5659 28.432 89.8113 28.6986C90.0673 28.9653 90.4299 29.0986 90.8993 29.0986C91.4006 29.0986 91.8166 28.9546 92.1473 28.6666L92.5473 29.4826C92.3233 29.6853 92.0513 29.8346 91.7313 29.9306C91.4219 30.0266 91.1019 30.0746 90.7713 30.0746ZM86.8033 22.5386V21.5946H92.0033V22.5386H86.8033Z" fill="#CBAF87"/>
<path d="M37 23.7937C37 22.3859 35.3111 21.242 32.8222 20.4501C33.4444 17.8983 33.1778 15.8745 32.0222 15.2586C31.6667 15.0826 31.4 14.9946 31.0444 14.9946C29.8889 14.9946 28.4667 15.7865 27.0444 17.1944C25.5333 15.7865 24.1111 14.9946 22.9556 14.9946C22.6 14.9946 22.2444 15.0826 21.9778 15.2586C20.8222 15.8745 20.5556 17.8983 21.1778 20.4501C18.6889 21.242 17 22.3859 17 23.7937C17 25.2016 18.6889 26.3455 21.1778 27.1374C20.5556 29.6891 20.7333 31.7129 21.9778 32.4168C22.2444 32.5928 22.6 32.6808 22.9556 32.6808C24.1111 32.6808 25.5333 31.8889 26.9556 30.481C28.3778 31.8889 29.8889 32.6808 30.9556 32.6808C31.3111 32.6808 31.6667 32.5928 31.9333 32.4168C33.0889 31.7129 33.3556 29.6891 32.7333 27.1374C35.3111 26.3455 37 25.1136 37 23.7937ZM31.0444 15.9625C31.2222 15.9625 31.4 15.9625 31.4889 16.0505C32.0222 16.4025 32.2889 17.5464 32.1111 19.0422C32.0222 19.3942 32.0222 19.8341 31.9333 20.1861C31.1333 20.0101 30.2444 19.8341 29.3556 19.7461C28.8222 19.0422 28.2889 18.3383 27.7556 17.8103C29 16.5785 30.2444 15.9625 31.0444 15.9625ZM29.7111 25.3776C29.4444 25.9055 29.0889 26.3455 28.8222 26.8734C28.2 26.8734 27.6667 26.9614 27.0444 26.9614C26.4222 26.9614 25.8 26.9614 25.2667 26.8734C24.9111 26.4335 24.6444 25.9055 24.3778 25.3776C24.1111 24.8496 23.8444 24.3217 23.5778 23.7937C23.8444 23.2658 24.1111 22.7378 24.3778 22.2099C24.6444 21.6819 25 21.154 25.3556 20.714C25.8889 20.714 26.5111 20.6261 27.1333 20.6261C27.7556 20.6261 28.2889 20.6261 28.9111 20.714C29.2667 21.154 29.5333 21.6819 29.8889 22.2099C30.1556 22.7378 30.4222 23.2658 30.6889 23.7937C30.3333 24.3217 29.9778 24.8496 29.7111 25.3776ZM31.0444 24.9376C31.2222 25.4656 31.4 25.9055 31.5778 26.4335C31.0444 26.5215 30.5111 26.6094 29.9778 26.6974C30.1556 26.4335 30.3333 26.1695 30.5111 25.8175C30.6889 25.5535 30.8667 25.2016 31.0444 24.9376ZM26.9556 29.0732C26.6 28.7212 26.2444 28.2813 25.8889 27.8413C26.2444 27.8413 26.6 27.8413 26.9556 27.8413C27.3111 27.8413 27.6667 27.8413 28.0222 27.8413C27.6667 28.2813 27.3111 28.7212 26.9556 29.0732ZM23.9333 26.6974C23.4 26.6094 22.8667 26.5215 22.3333 26.4335C22.5111 25.9055 22.6889 25.4656 22.8667 24.9376C23.0444 25.2016 23.2222 25.5535 23.4 25.8175C23.5778 26.1695 23.7556 26.4335 23.9333 26.6974ZM22.9556 22.6498C22.7778 22.1219 22.6 21.594 22.4222 21.154C22.9556 21.066 23.4889 20.978 24.0222 20.89C23.8444 21.154 23.6667 21.506 23.4889 21.7699C23.2222 22.0339 23.0444 22.3859 22.9556 22.6498ZM26.9556 18.5143C27.3111 18.8662 27.6667 19.3062 28.0222 19.7461C27.6667 19.7461 27.3111 19.7461 26.9556 19.7461C26.6 19.7461 26.2444 19.7461 25.8889 19.7461C26.2444 19.3062 26.6 18.8662 26.9556 18.5143ZM30.5111 21.7699C30.3333 21.418 30.1556 21.154 29.9778 20.89C30.5111 20.978 31.0444 21.066 31.5778 21.154C31.4 21.6819 31.2222 22.2099 31.0444 22.6498C30.8667 22.3859 30.6889 22.0339 30.5111 21.7699ZM21.8889 19.0422C21.7111 17.5464 21.8889 16.4025 22.5111 16.0505C22.6 15.9625 22.7778 15.9625 22.9556 15.9625C23.7556 15.9625 25 16.5785 26.3333 17.8983C25.8 18.5143 25.2667 19.1302 24.7333 19.8341C23.8444 19.9221 22.9556 20.0981 22.1556 20.2741C21.9778 19.8341 21.8889 19.3942 21.8889 19.0422ZM20.2889 25.7295C18.8667 25.1136 17.9778 24.4097 17.9778 23.7057C17.9778 23.0898 18.8667 22.2979 20.2889 21.6819C20.6444 21.506 21 21.418 21.4444 21.33C21.7111 22.1219 21.9778 22.9138 22.3333 23.7057C21.9778 24.4977 21.6222 25.2896 21.4444 26.0815C21 26.0815 20.6444 25.9055 20.2889 25.7295ZM22.5111 31.5369C21.9778 31.185 21.7111 30.0411 21.8889 28.5452C21.9778 28.1933 21.9778 27.7533 22.1556 27.3134C22.9556 27.4894 23.7556 27.6653 24.6444 27.7533C25.1778 28.4573 25.7111 29.1612 26.3333 29.7771C25 31.009 23.7556 31.7129 22.9556 31.7129C22.7778 31.6249 22.6 31.6249 22.5111 31.5369ZM32.1111 28.5452C32.2889 30.0411 32.1111 31.185 31.4889 31.5369C31.4 31.6249 31.2222 31.6249 31.0444 31.6249C30.2444 31.6249 29 31.009 27.6667 29.6891C28.2 29.0732 28.8222 28.4573 29.3556 27.6653C30.2444 27.5773 31.1333 27.4894 31.8444 27.2254C31.9333 27.7533 32.0222 28.1933 32.1111 28.5452ZM33.7111 25.7295C33.3556 25.9055 33 25.9935 32.5556 26.1695C32.2889 25.3776 32.0222 24.5856 31.6667 23.7937C32.0222 23.0018 32.3778 22.1219 32.5556 21.418C33 21.506 33.3556 21.6819 33.7111 21.7699C35.1333 22.3859 36.0222 23.0898 36.0222 23.7937C36.0222 24.4097 35.1333 25.2016 33.7111 25.7295Z" fill="#CBAF87"/>
<path d="M27.0444 25.6414C28.1111 25.6414 28.9111 24.8495 28.9111 23.7936C28.9111 22.7377 28.1111 21.9458 27.0444 21.9458C25.9777 21.9458 25.1777 22.7377 25.1777 23.7936C25.1777 24.8495 25.9777 25.6414 27.0444 25.6414Z" fill="#CBAF87"/>
</svg>
