<svg width="20" height="20" viewBox="0 0 20 20" fill="none" xmlns="http://www.w3.org/2000/svg">
<path d="M0 3C0 1.34315 1.34315 0 3 0H17C18.6569 0 20 1.34315 20 3V17C20 18.6569 18.6569 20 17 20H3C1.34315 20 0 18.6569 0 17V3Z" fill="#CBAF87"/>
<path d="M16.9385 16.5133C17.525 16.1451 17.906 15.5497 17.977 14.8897C18.2275 13.0543 16.375 12.5451 15.1389 12.2053L15.1276 12.2022C13.7704 11.8342 13.4517 11.6508 13.5029 11.2723C13.5175 11.0313 13.6506 10.8105 13.8629 10.675C14.5627 10.2236 16.0712 10.4587 16.5436 10.5763C16.7922 10.6322 17.0539 10.5652 17.2381 10.3985C17.654 10.0219 17.4806 9.36307 16.926 9.21252C16.6723 9.15139 14.414 8.62352 13.0255 9.50408C12.4548 9.86771 12.0849 10.4507 12.0157 11.0959C11.7908 12.7639 13.5473 13.2413 14.7109 13.5576C16.2255 13.969 16.5586 14.1843 16.4861 14.7051C16.4731 14.9582 16.3342 15.1908 16.1112 15.3329C15.4101 15.7715 13.9266 15.5234 13.4629 15.4058C13.2049 15.338 12.9279 15.4048 12.7365 15.5812C12.3239 15.9611 12.5032 16.6187 13.0593 16.7649C13.6579 16.9156 14.2743 16.9946 14.8939 17C15.58 17 16.3361 16.8883 16.9385 16.5133Z" fill="#0E0E0E"/>
<path d="M9.74995 10.4152C10.1641 10.4152 10.4998 10.0994 10.4998 9.70982C10.4998 9.32025 10.1641 9.00444 9.74995 9.00444H4.75097C4.48308 9.00444 4.23553 9.13888 4.10158 9.35713C3.81296 9.82739 4.17374 10.4152 4.75097 10.4152H6.50061V16.2934C6.50061 16.5454 6.64353 16.7783 6.87553 16.9043C7.37544 17.1758 8.00031 16.8364 8.00031 16.2934V10.4152H9.74995Z" fill="#0E0E0E"/>
<path d="M16.9385 16.5133C17.525 16.1451 17.906 15.5497 17.977 14.8897C18.2275 13.0543 16.375 12.5451 15.1389 12.2053L15.1276 12.2022C13.7704 11.8342 13.4517 11.6508 13.5029 11.2723C13.5175 11.0313 13.6506 10.8105 13.8629 10.675C14.5627 10.2236 16.0712 10.4587 16.5436 10.5763C16.7922 10.6322 17.0539 10.5652 17.2381 10.3985C17.654 10.0219 17.4806 9.36307 16.926 9.21252C16.6723 9.15139 14.414 8.62352 13.0255 9.50408C12.4548 9.86771 12.0849 10.4507 12.0157 11.0959C11.7908 12.7639 13.5473 13.2413 14.7109 13.5576L14.7114 13.5577C16.2261 13.9692 16.5586 14.1843 16.4861 14.7051C16.4731 14.9582 16.3342 15.1908 16.1112 15.3329C15.4101 15.7715 13.9266 15.5234 13.4629 15.4058C13.2049 15.338 12.9279 15.4048 12.7365 15.5812C12.3239 15.9611 12.5032 16.6187 13.0593 16.7649C13.6579 16.9156 14.2743 16.9946 14.8939 17C15.58 17 16.3361 16.8883 16.9385 16.5133Z" fill="#0E0E0E"/>
<path d="M9.74995 10.4152C10.1641 10.4152 10.4998 10.0994 10.4998 9.70982C10.4998 9.32025 10.1641 9.00444 9.74995 9.00444H4.75097C4.48308 9.00444 4.23552 9.13888 4.10158 9.35713C3.81296 9.82739 4.17374 10.4152 4.75097 10.4152H6.50061V16.2934C6.50061 16.5454 6.64353 16.7783 6.87553 16.9043C7.37544 17.1758 8.00031 16.8364 8.00031 16.2934V10.4152H9.74995Z" fill="#0E0E0E"/>
</svg>
