<svg width="144" height="48" viewBox="0 0 144 48" fill="none" xmlns="http://www.w3.org/2000/svg">
<rect width="144" height="48" rx="15" fill="#0E0E0E"/>
<path d="M17 17C17 15.3431 18.3431 14 20 14H34C35.6569 14 37 15.3431 37 17V31C37 32.6569 35.6569 34 34 34H20C18.3431 34 17 32.6569 17 31V17Z" fill="#CBAF87"/>
<path d="M33.9385 30.5133C34.525 30.1451 34.906 29.5497 34.977 28.8897C35.2275 27.0543 33.375 26.5451 32.1389 26.2053L32.1276 26.2022C30.7704 25.8342 30.4517 25.6508 30.5029 25.2723C30.5175 25.0313 30.6506 24.8105 30.8629 24.675C31.5627 24.2236 33.0712 24.4587 33.5436 24.5763C33.7922 24.6322 34.0539 24.5652 34.2381 24.3985C34.654 24.0219 34.4806 23.3631 33.926 23.2125C33.6723 23.1514 31.414 22.6235 30.0255 23.5041C29.4548 23.8677 29.0849 24.4507 29.0157 25.0959C28.7908 26.7639 30.5473 27.2413 31.7109 27.5576C33.2255 27.969 33.5586 28.1843 33.4861 28.7051C33.4731 28.9582 33.3342 29.1908 33.1112 29.3329C32.4101 29.7715 30.9266 29.5234 30.4629 29.4058C30.2049 29.338 29.9279 29.4048 29.7365 29.5812C29.3239 29.9611 29.5032 30.6187 30.0593 30.7649C30.6579 30.9156 31.2743 30.9946 31.8939 31C32.58 31 33.3361 30.8883 33.9385 30.5133Z" fill="#0E0E0E"/>
<path d="M26.7499 24.4152C27.1641 24.4152 27.4998 24.0994 27.4998 23.7098C27.4998 23.3202 27.1641 23.0044 26.7499 23.0044H21.751C21.4831 23.0044 21.2355 23.1389 21.1016 23.3571C20.813 23.8274 21.1737 24.4152 21.751 24.4152H23.5006V30.2934C23.5006 30.5454 23.6435 30.7783 23.8755 30.9043C24.3754 31.1758 25.0003 30.8364 25.0003 30.2934V24.4152H26.7499Z" fill="#0E0E0E"/>
<path d="M33.9385 30.5133C34.525 30.1451 34.906 29.5497 34.977 28.8897C35.2275 27.0543 33.375 26.5451 32.1389 26.2053L32.1276 26.2022C30.7704 25.8342 30.4517 25.6508 30.5029 25.2723C30.5175 25.0313 30.6506 24.8105 30.8629 24.675C31.5627 24.2236 33.0712 24.4587 33.5436 24.5763C33.7922 24.6322 34.0539 24.5652 34.2381 24.3985C34.654 24.0219 34.4806 23.3631 33.926 23.2125C33.6723 23.1514 31.414 22.6235 30.0255 23.5041C29.4548 23.8677 29.0849 24.4507 29.0157 25.0959C28.7908 26.7639 30.5473 27.2413 31.7109 27.5576L31.7114 27.5577C33.2261 27.9692 33.5586 28.1843 33.4861 28.7051C33.4731 28.9582 33.3342 29.1908 33.1112 29.3329C32.4101 29.7715 30.9266 29.5234 30.4629 29.4058C30.2049 29.338 29.9279 29.4048 29.7364 29.5812C29.3239 29.9611 29.5032 30.6187 30.0593 30.7649C30.6579 30.9156 31.2743 30.9946 31.8939 31C32.58 31 33.3361 30.8883 33.9385 30.5133Z" fill="#6C63FF" fill-opacity="0.1"/>
<path d="M26.7499 24.4152C27.1641 24.4152 27.4998 24.0994 27.4998 23.7098C27.4998 23.3202 27.1641 23.0044 26.7499 23.0044H21.751C21.4831 23.0044 21.2355 23.1389 21.1016 23.3571C20.813 23.8274 21.1737 24.4152 21.751 24.4152H23.5006V30.2934C23.5006 30.5454 23.6435 30.7783 23.8755 30.9043C24.3754 31.1758 25.0003 30.8364 25.0003 30.2934V24.4152H26.7499Z" fill="#6C63FF" fill-opacity="0.1"/>
<path d="M50.75 28.9946V19.4546H47.06V18.4946H55.55V19.4546H51.86V28.9946H50.75ZM56.6456 31.9796C56.2756 31.9796 55.9206 31.9196 55.5806 31.7996C55.2506 31.6796 54.9656 31.4996 54.7256 31.2596L55.2206 30.4646C55.4206 30.6546 55.6356 30.7996 55.8656 30.8996C56.1056 31.0096 56.3706 31.0646 56.6606 31.0646C57.0106 31.0646 57.3106 30.9646 57.5606 30.7646C57.8206 30.5746 58.0656 30.2346 58.2956 29.7446L58.8056 28.5896L58.9256 28.4246L62.1656 21.1196H63.2156L59.2706 29.9396C59.0506 30.4496 58.8056 30.8546 58.5356 31.1546C58.2756 31.4546 57.9906 31.6646 57.6806 31.7846C57.3706 31.9146 57.0256 31.9796 56.6456 31.9796ZM58.7456 29.2196L55.1156 21.1196H56.2256L59.4356 28.3496L58.7456 29.2196ZM68.7805 29.0696C68.1005 29.0696 67.4855 28.9146 66.9355 28.6046C66.3855 28.2846 65.9455 27.8296 65.6155 27.2396C65.2955 26.6396 65.1355 25.9096 65.1355 25.0496C65.1355 24.1896 65.2955 23.4646 65.6155 22.8746C65.9355 22.2746 66.3705 21.8196 66.9205 21.5096C67.4705 21.1996 68.0905 21.0446 68.7805 21.0446C69.5305 21.0446 70.2005 21.2146 70.7905 21.5546C71.3905 21.8846 71.8605 22.3546 72.2005 22.9646C72.5405 23.5646 72.7105 24.2596 72.7105 25.0496C72.7105 25.8496 72.5405 26.5496 72.2005 27.1496C71.8605 27.7496 71.3905 28.2196 70.7905 28.5596C70.2005 28.8996 69.5305 29.0696 68.7805 29.0696ZM64.7155 31.9046V21.1196H65.7355V23.4896L65.6305 25.0646L65.7805 26.6546V31.9046H64.7155ZM68.7055 28.1246C69.2655 28.1246 69.7655 27.9996 70.2055 27.7496C70.6455 27.4896 70.9955 27.1296 71.2555 26.6696C71.5155 26.1996 71.6455 25.6596 71.6455 25.0496C71.6455 24.4396 71.5155 23.9046 71.2555 23.4446C70.9955 22.9846 70.6455 22.6246 70.2055 22.3646C69.7655 22.1046 69.2655 21.9746 68.7055 21.9746C68.1455 21.9746 67.6405 22.1046 67.1905 22.3646C66.7505 22.6246 66.4005 22.9846 66.1405 23.4446C65.8905 23.9046 65.7655 24.4396 65.7655 25.0496C65.7655 25.6596 65.8905 26.1996 66.1405 26.6696C66.4005 27.1296 66.7505 27.4896 67.1905 27.7496C67.6405 27.9996 68.1455 28.1246 68.7055 28.1246ZM78.2265 29.0696C77.4065 29.0696 76.6865 28.8996 76.0665 28.5596C75.4465 28.2096 74.9615 27.7346 74.6115 27.1346C74.2615 26.5246 74.0865 25.8296 74.0865 25.0496C74.0865 24.2696 74.2515 23.5796 74.5815 22.9796C74.9215 22.3796 75.3815 21.9096 75.9615 21.5696C76.5515 21.2196 77.2115 21.0446 77.9415 21.0446C78.6815 21.0446 79.3365 21.2146 79.9065 21.5546C80.4865 21.8846 80.9415 22.3546 81.2715 22.9646C81.6015 23.5646 81.7665 24.2596 81.7665 25.0496C81.7665 25.0996 81.7615 25.1546 81.7515 25.2146C81.7515 25.2646 81.7515 25.3196 81.7515 25.3796H74.8965V24.5846H81.1815L80.7615 24.8996C80.7615 24.3296 80.6365 23.8246 80.3865 23.3846C80.1465 22.9346 79.8165 22.5846 79.3965 22.3346C78.9765 22.0846 78.4915 21.9596 77.9415 21.9596C77.4015 21.9596 76.9165 22.0846 76.4865 22.3346C76.0565 22.5846 75.7215 22.9346 75.4815 23.3846C75.2415 23.8346 75.1215 24.3496 75.1215 24.9296V25.0946C75.1215 25.6946 75.2515 26.2246 75.5115 26.6846C75.7815 27.1346 76.1515 27.4896 76.6215 27.7496C77.1015 27.9996 77.6465 28.1246 78.2565 28.1246C78.7365 28.1246 79.1815 28.0396 79.5915 27.8696C80.0115 27.6996 80.3715 27.4396 80.6715 27.0896L81.2715 27.7796C80.9215 28.1996 80.4815 28.5196 79.9515 28.7396C79.4315 28.9596 78.8565 29.0696 78.2265 29.0696ZM87.0542 29.0846C86.2742 29.0846 85.5242 28.9596 84.8042 28.7096C84.0942 28.4496 83.5442 28.1196 83.1542 27.7196L83.5892 26.8646C83.9592 27.2246 84.4542 27.5296 85.0742 27.7796C85.7042 28.0196 86.3642 28.1396 87.0542 28.1396C87.7142 28.1396 88.2492 28.0596 88.6592 27.8996C89.0792 27.7296 89.3842 27.5046 89.5742 27.2246C89.7742 26.9446 89.8742 26.6346 89.8742 26.2946C89.8742 25.8846 89.7542 25.5546 89.5142 25.3046C89.2842 25.0546 88.9792 24.8596 88.5992 24.7196C88.2192 24.5696 87.7992 24.4396 87.3392 24.3296C86.8792 24.2196 86.4192 24.1046 85.9592 23.9846C85.4992 23.8546 85.0742 23.6846 84.6842 23.4746C84.3042 23.2646 83.9942 22.9896 83.7542 22.6496C83.5242 22.2996 83.4092 21.8446 83.4092 21.2846C83.4092 20.7646 83.5442 20.2896 83.8142 19.8596C84.0942 19.4196 84.5192 19.0696 85.0892 18.8096C85.6592 18.5396 86.3892 18.4046 87.2792 18.4046C87.8692 18.4046 88.4542 18.4896 89.0342 18.6596C89.6142 18.8196 90.1142 19.0446 90.5342 19.3346L90.1592 20.2196C89.7092 19.9196 89.2292 19.6996 88.7192 19.5596C88.2192 19.4196 87.7342 19.3496 87.2642 19.3496C86.6342 19.3496 86.1142 19.4346 85.7042 19.6046C85.2942 19.7746 84.9892 20.0046 84.7892 20.2946C84.5992 20.5746 84.5042 20.8946 84.5042 21.2546C84.5042 21.6646 84.6192 21.9946 84.8492 22.2446C85.0892 22.4946 85.3992 22.6896 85.7792 22.8296C86.1692 22.9696 86.5942 23.0946 87.0542 23.2046C87.5142 23.3146 87.9692 23.4346 88.4192 23.5646C88.8792 23.6946 89.2992 23.8646 89.6792 24.0746C90.0692 24.2746 90.3792 24.5446 90.6092 24.8846C90.8492 25.2246 90.9692 25.6696 90.9692 26.2196C90.9692 26.7296 90.8292 27.2046 90.5492 27.6446C90.2692 28.0746 89.8392 28.4246 89.2592 28.6946C88.6892 28.9546 87.9542 29.0846 87.0542 29.0846ZM96.4327 29.0696C95.6527 29.0696 94.9527 28.8996 94.3327 28.5596C93.7227 28.2096 93.2427 27.7346 92.8927 27.1346C92.5427 26.5246 92.3677 25.8296 92.3677 25.0496C92.3677 24.2596 92.5427 23.5646 92.8927 22.9646C93.2427 22.3646 93.7227 21.8946 94.3327 21.5546C94.9527 21.2146 95.6527 21.0446 96.4327 21.0446C97.1027 21.0446 97.7077 21.1746 98.2477 21.4346C98.7877 21.6946 99.2127 22.0846 99.5227 22.6046L98.7277 23.1446C98.4577 22.7446 98.1227 22.4496 97.7227 22.2596C97.3227 22.0696 96.8877 21.9746 96.4177 21.9746C95.8577 21.9746 95.3527 22.1046 94.9027 22.3646C94.4527 22.6146 94.0977 22.9696 93.8377 23.4296C93.5777 23.8896 93.4477 24.4296 93.4477 25.0496C93.4477 25.6696 93.5777 26.2096 93.8377 26.6696C94.0977 27.1296 94.4527 27.4896 94.9027 27.7496C95.3527 27.9996 95.8577 28.1246 96.4177 28.1246C96.8877 28.1246 97.3227 28.0296 97.7227 27.8396C98.1227 27.6496 98.4577 27.3596 98.7277 26.9696L99.5227 27.5096C99.2127 28.0196 98.7877 28.4096 98.2477 28.6796C97.7077 28.9396 97.1027 29.0696 96.4327 29.0696ZM101.615 28.9946V21.1196H102.635V23.2646L102.53 22.8896C102.75 22.2896 103.12 21.8346 103.64 21.5246C104.16 21.2046 104.805 21.0446 105.575 21.0446V22.0796C105.535 22.0796 105.495 22.0796 105.455 22.0796C105.415 22.0696 105.375 22.0646 105.335 22.0646C104.505 22.0646 103.855 22.3196 103.385 22.8296C102.915 23.3296 102.68 24.0446 102.68 24.9746V28.9946H101.615ZM107.518 28.9946V21.1196H108.583V28.9946H107.518ZM108.058 19.3796C107.838 19.3796 107.653 19.3046 107.503 19.1546C107.353 19.0046 107.278 18.8246 107.278 18.6146C107.278 18.4046 107.353 18.2296 107.503 18.0896C107.653 17.9396 107.838 17.8646 108.058 17.8646C108.278 17.8646 108.463 17.9346 108.613 18.0746C108.763 18.2146 108.838 18.3896 108.838 18.5996C108.838 18.8196 108.763 19.0046 108.613 19.1546C108.473 19.3046 108.288 19.3796 108.058 19.3796ZM115.612 29.0696C114.932 29.0696 114.317 28.9146 113.767 28.6046C113.217 28.2846 112.777 27.8296 112.447 27.2396C112.127 26.6396 111.967 25.9096 111.967 25.0496C111.967 24.1896 112.127 23.4646 112.447 22.8746C112.767 22.2746 113.202 21.8196 113.752 21.5096C114.302 21.1996 114.922 21.0446 115.612 21.0446C116.362 21.0446 117.032 21.2146 117.622 21.5546C118.222 21.8846 118.692 22.3546 119.032 22.9646C119.372 23.5646 119.542 24.2596 119.542 25.0496C119.542 25.8496 119.372 26.5496 119.032 27.1496C118.692 27.7496 118.222 28.2196 117.622 28.5596C117.032 28.8996 116.362 29.0696 115.612 29.0696ZM111.547 31.9046V21.1196H112.567V23.4896L112.462 25.0646L112.612 26.6546V31.9046H111.547ZM115.537 28.1246C116.097 28.1246 116.597 27.9996 117.037 27.7496C117.477 27.4896 117.827 27.1296 118.087 26.6696C118.347 26.1996 118.477 25.6596 118.477 25.0496C118.477 24.4396 118.347 23.9046 118.087 23.4446C117.827 22.9846 117.477 22.6246 117.037 22.3646C116.597 22.1046 116.097 21.9746 115.537 21.9746C114.977 21.9746 114.472 22.1046 114.022 22.3646C113.582 22.6246 113.232 22.9846 112.972 23.4446C112.722 23.9046 112.597 24.4396 112.597 25.0496C112.597 25.6596 112.722 26.1996 112.972 26.6696C113.232 27.1296 113.582 27.4896 114.022 27.7496C114.472 27.9996 114.977 28.1246 115.537 28.1246ZM124.203 29.0696C123.463 29.0696 122.893 28.8696 122.493 28.4696C122.093 28.0696 121.893 27.5046 121.893 26.7746V19.3796H122.958V26.7146C122.958 27.1746 123.073 27.5296 123.303 27.7796C123.543 28.0296 123.883 28.1546 124.323 28.1546C124.793 28.1546 125.183 28.0196 125.493 27.7496L125.868 28.5146C125.658 28.7046 125.403 28.8446 125.103 28.9346C124.813 29.0246 124.513 29.0696 124.203 29.0696ZM120.483 22.0046V21.1196H125.358V22.0046H120.483Z" fill="#CBAF87"/>
</svg>
