<svg width="20" height="20" viewBox="0 0 20 20" fill="none" xmlns="http://www.w3.org/2000/svg">
<path d="M0 3C0 1.34315 1.34315 0 3 0H17C18.6569 0 20 1.34315 20 3V17C20 18.6569 18.6569 20 17 20H3C1.34315 20 0 18.6569 0 17V3Z" fill="#CBAF87"/>
<path d="M17.4315 3.69176L14.1401 2.1C13.7571 1.91404 13.3016 1.99245 13.0021 2.29351L6.69781 8.07602L3.95038 5.98165C3.69539 5.78513 3.3359 5.80121 3.09891 6.01834L2.21893 6.82452C1.92744 7.08889 1.92744 7.54978 2.21643 7.81416L4.59937 10L2.21643 12.1858C1.92744 12.4502 1.92744 12.9111 2.21893 13.1755L3.09891 13.9817C3.3384 14.1988 3.69539 14.2149 3.95038 14.0184L6.69781 11.9215L13.0051 17.7065C13.3021 18.0076 13.7576 18.086 14.1406 17.9L17.435 16.3057C17.7815 16.1384 18 15.7875 18 15.4V4.59646C18 4.21146 17.7785 3.85813 17.4325 3.69076L17.4315 3.69176ZM14.0016 13.6525L9.21524 10.0005L14.0016 6.34855V13.6525Z" fill="#0E0E0E"/>
</svg>
