<svg width="20" height="20" viewBox="0 0 20 20" fill="none" xmlns="http://www.w3.org/2000/svg">
<path d="M0 3C0 1.34315 1.34315 0 3 0H17C18.6569 0 20 1.34315 20 3V17C20 18.6569 18.6569 20 17 20H3C1.34315 20 0 18.6569 0 17V3Z" fill="#CBAF87"/>
<path d="M7.52158 9.05183L7.86335 3.28049C7.86607 3.23533 7.88374 3.19236 7.91359 3.15832C7.94344 3.12429 7.98376 3.10113 8.02823 3.09249L13.5901 2.00382C13.6244 1.99709 13.6599 1.99928 13.6932 2.01019C13.7264 2.0211 13.7563 2.04037 13.78 2.06613C13.8036 2.0919 13.8203 2.12331 13.8283 2.15735C13.8363 2.19138 13.8354 2.2269 13.8257 2.26049L12.7857 5.86249C12.776 5.89602 12.7752 5.93146 12.7831 5.96543C12.7911 5.99939 12.8077 6.03075 12.8313 6.0565C12.8548 6.08225 12.8846 6.10153 12.9178 6.1125C12.9509 6.12347 12.9864 6.12576 13.0207 6.11916L14.6147 5.81249C14.6522 5.80517 14.691 5.8085 14.7267 5.82211C14.7625 5.83571 14.7936 5.85905 14.8167 5.88947C14.8398 5.91989 14.8539 5.95616 14.8573 5.99417C14.8608 6.03219 14.8535 6.07041 14.8363 6.10449L10.3038 15.1378L10.2217 15.2645C10.2041 15.2932 10.1793 15.3168 10.1499 15.3332C10.1204 15.3495 10.0872 15.358 10.0535 15.3578C9.93536 15.3578 9.81987 15.2565 9.84991 15.1118L10.5809 11.5778C10.588 11.5432 10.5861 11.5073 10.5752 11.4737C10.5643 11.4401 10.5448 11.4098 10.5187 11.386C10.4926 11.3621 10.4607 11.3454 10.4262 11.3376C10.3917 11.3297 10.3557 11.331 10.3219 11.3412L9.36529 11.6312C9.33142 11.6415 9.29545 11.6428 9.26091 11.635C9.22637 11.6273 9.19445 11.6107 9.16826 11.5869C9.14208 11.5631 9.12254 11.5329 9.11156 11.4993C9.10057 11.4657 9.09853 11.4298 9.10562 11.3952L9.56621 9.14516C9.5732 9.11157 9.57158 9.07676 9.56152 9.04395C9.55146 9.01115 9.53328 8.9814 9.50866 8.95748C9.48404 8.93355 9.45377 8.91621 9.42066 8.90707C9.38755 8.89792 9.35266 8.89727 9.31923 8.90516L7.77056 9.26249C7.73966 9.26959 7.70752 9.26939 7.6767 9.26193C7.64588 9.25447 7.61722 9.23994 7.593 9.2195C7.56877 9.19906 7.54965 9.17326 7.53714 9.14416C7.52462 9.11506 7.51907 9.08345 7.52091 9.05183H7.52158ZM17.5185 3.76782L13.528 4.49316L13.1649 5.75116L14.5513 5.48449C14.6587 5.4631 14.7702 5.47523 14.8705 5.51924C14.9708 5.56324 15.0551 5.637 15.112 5.73049C15.1603 5.80825 15.1878 5.89711 15.1918 5.98853C15.1957 6.07995 15.1761 6.17085 15.1347 6.25249L10.6015 15.2865L10.5929 15.3032L10.5829 15.3185L10.5014 15.4452C10.4533 15.5205 10.387 15.5825 10.3086 15.6256C10.2302 15.6687 10.1423 15.6915 10.0528 15.6918C9.97182 15.6914 9.89189 15.6731 9.81874 15.6383C9.74559 15.6035 9.68103 15.553 9.62963 15.4905C9.57964 15.4287 9.5441 15.3565 9.52562 15.2792C9.50714 15.202 9.50619 15.1215 9.52282 15.0438L10.2097 11.7232L9.46208 11.9498C9.35981 11.9806 9.25072 11.9804 9.14855 11.9493C9.04638 11.9183 8.95572 11.8576 8.888 11.7752C8.83752 11.7136 8.80143 11.6415 8.78238 11.5643C8.76332 11.487 8.76178 11.4064 8.77786 11.3285L9.19841 9.27516L7.84533 9.58716C7.75373 9.60811 7.65824 9.6048 7.56832 9.57756C7.4784 9.55031 7.39717 9.50008 7.33267 9.43183C7.28266 9.37842 7.24404 9.31543 7.21914 9.24667C7.19424 9.17791 7.18359 9.10482 7.18781 9.03183L7.44748 4.65182L2.48108 3.76516C2.40456 3.75137 2.32569 3.75967 2.25373 3.7891C2.18177 3.81852 2.11972 3.86784 2.07486 3.93127C2.02999 3.9947 2.00419 4.06959 2.00047 4.14716C1.99675 4.22473 2.01527 4.30174 2.05386 4.36916L9.72041 17.7938C9.75622 17.8567 9.80811 17.9089 9.87077 17.9451C9.93342 17.9813 10.0046 18.0003 10.077 18C10.1494 17.9997 10.2204 17.9802 10.2828 17.9436C10.3452 17.9069 10.3967 17.8543 10.432 17.7912L17.9484 4.36782C17.986 4.30029 18.0037 4.22345 17.9994 4.14626C17.995 4.06907 17.9688 3.99471 17.9237 3.93183C17.8787 3.86896 17.8166 3.82016 17.7449 3.79112C17.6732 3.76209 17.5946 3.75401 17.5185 3.76782Z" fill="#0E0E0E"/>
</svg>
